<svg xmlns="http://www.w3.org/2000/svg" viewBox="0 0 85.04 85.04"><defs><style>.cls-1{fill:#373636;}.cls-2{fill:none;}.cls-3{fill:#2670b8;}.cls-4{font-size:14.05px;fill:#fff;font-family:MyriadPro-Regular, Myriad Pro;}</style></defs><g id="Layer_2" data-name="Layer 2"><g id="Layer_1-2" data-name="Layer 1"><rect class="cls-1" width="85.04" height="85.04"/><circle class="cls-2" cx="42.52" cy="42.52" r="35.6"/><path class="cls-3" d="M42.52,78.62a36.1,36.1,0,1,1,36.1-36.1A36.14,36.14,0,0,1,42.52,78.62Zm0-71.2a35.1,35.1,0,1,0,35.1,35.1A35.15,35.15,0,0,0,42.52,7.42Z"/><text class="cls-4" transform="translate(29.79 44.55) rotate(-90) scale(1.09 1)">N<tspan x="0" y="16.85">C</tspan><tspan x="0" y="33.71">N</tspan></text><path class="cls-3" d="M42.52,73a36.1,36.1,0,1,1,36.1-36.1A36.14,36.14,0,0,1,42.52,73Zm0-71.2a35.1,35.1,0,1,0,35.1,35.1A35.15,35.15,0,0,0,42.52,1.75Z"/><path class="cls-3" d="M42.52,84.29a36.1,36.1,0,1,1,36.1-36.1A36.14,36.14,0,0,1,42.52,84.29Zm0-71.2a35.1,35.1,0,1,0,35.1,35.1A35.15,35.15,0,0,0,42.52,13.09Z"/></g></g></svg>